<svg version="1.1" width="28" height="28" xmlns="http://www.w3.org/2000/svg">
  <path
    d="M15.9999 7.3335C12.3199 7.3335 9.33325 10.3202 9.33325 14.0002C9.33325 17.6802 12.3199 20.6668 15.9999 20.6668C19.6799 20.6668 22.6666 17.6802 22.6666 14.0002C22.6666 10.3202 19.6799 7.3335 15.9999 7.3335ZM14.1933 16.8602L11.7999 14.4668C11.5399 14.2068 11.5399 13.7868 11.7999 13.5268C12.0599 13.2668 12.4799 13.2668 12.7399 13.5268L14.6666 15.4468L19.2533 10.8602C19.5133 10.6002 19.9333 10.6002 20.1933 10.8602C20.4533 11.1202 20.4533 11.5402 20.1933 11.8002L15.1333 16.8602C14.8799 17.1202 14.4533 17.1202 14.1933 16.8602Z"
    fill="#00B191"
  />
</svg>