<svg width="60" height="60" viewBox="0 0 60 60" fill="none" xmlns="http://www.w3.org/2000/svg">
<rect width="60" height="60" rx="14" fill="white" fill-opacity="0.2"/>
<path d="M30 36.7998C33.7206 36.7998 36.7537 33.9021 36.7537 30.309V19.4522C36.7537 15.8977 33.7206 13 30 13C26.2794 13 23.2463 15.8977 23.2463 19.4522V30.3476C23.2463 33.9021 26.2794 36.7998 30 36.7998Z" fill="white"/>
<path d="M39.7868 26.3687H37.5221V28.6868H38.5735V31.8936C38.5735 34.9072 34.7316 38.539 30 38.539C25.2684 38.539 21.4265 34.8686 21.4265 30.3482V28.6868H22.4375V26.3687H20.2132C19.5257 26.3687 19 26.8709 19 27.5277V30.3482C19 35.7572 23.2868 40.2004 28.7868 40.7799V44.6822H25.1875C24.5 44.6822 23.9743 45.1844 23.9743 45.8412C23.9743 46.4981 24.5 47.0003 25.1875 47.0003H34.8125C35.5 47.0003 36.0257 46.4981 36.0257 45.8412C36.0257 45.1844 35.5 44.6822 34.8125 44.6822H31.2132V40.7799C33.5993 40.5481 35.864 39.5822 37.7243 37.9981C39.7868 36.2209 41 34.0186 41 31.855V27.5277C41 26.8709 40.4743 26.3687 39.7868 26.3687Z" fill="white"/>
</svg>
