<svg version="1.1" width="28" height="28" xmlns="http://www.w3.org/2000/svg">
  <path
            d="M19.9999 14.6668H16.6666V18.0002C16.6666 18.3668 16.3666 18.6668 15.9999 18.6668C15.6333 18.6668 15.3333 18.3668 15.3333 18.0002V14.6668H11.9999C11.6333 14.6668 11.3333 14.3668 11.3333 14.0002C11.3333 13.6335 11.6333 13.3335 11.9999 13.3335H15.3333V10.0002C15.3333 9.6335 15.6333 9.3335 15.9999 9.3335C16.3666 9.3335 16.6666 9.6335 16.6666 10.0002V13.3335H19.9999C20.3666 13.3335 20.6666 13.6335 20.6666 14.0002C20.6666 14.3668 20.3666 14.6668 19.9999 14.6668Z"
            fill="#004D80"
          />
</svg>